<?xml version="1.0" encoding="UTF-8"?><svg id="a" xmlns="http://www.w3.org/2000/svg" viewBox="0 0 543.8 293.9"><path d="m454.7,115.6c-26.8,0-50.8,11.8-67.1,30.5-16.3-18.7-40.3-30.5-67.1-30.5s-22.6,2.2-32.7,6.2c4-10.1,6.2-21.1,6.2-32.7,0-49.2-39.9-89.2-89.2-89.2s-89.2,39.9-89.2,89.2,2.2,22.5,6.2,32.7c-10.1-4-21.1-6.2-32.7-6.2C39.9,115.6,0,155.5,0,204.8s39.9,89.2,89.2,89.2,89.2-39.9,89.2-89.2-2.2-22.6-6.2-32.7c10.1,4,21.1,6.2,32.7,6.2s22.6-2.2,32.7-6.2c-4,10.1-6.2,21.1-6.2,32.7,0,49.2,39.9,89.2,89.2,89.2s50.8-11.8,67.1-30.5c16.3,18.7,40.4,30.5,67.1,30.5,49.2,0,89.2-39.9,89.2-89.2,0-49.2-39.9-89.2-89.2-89.2Z" style="fill:#fff; stroke-width:0px;"/><path d="m454.7,121.8c-25.3,0-48,11.3-63.2,29.2,11.3,15,18.1,33.6,18.1,53.8s-6.7,38.8-18.1,53.8c15.2,17.9,37.9,29.2,63.2,29.2,45.8,0,83-37.2,83-83s-37.2-83-83-83Zm0,118c-19.4,0-35-15.7-35-35s15.7-35,35-35,35,15.7,35,35c0,19.4-15.7,35-35,35Z" style="fill:#f0824b; stroke-width:0px;"/><path d="m173.1,104c-2.1-4.5-3.3-9.5-3.3-14.9,0-19.4,15.7-35,35-35s35,15.7,35,35-1.4,11-3.8,15.7l34.6,34.6c10.7-14,17-31.4,17-50.4,0-45.8-37.2-83-83-83s-83,37.2-83,83,6.1,35.8,16.5,49.7l34.8-34.8Z" style="fill:#5ca2cc; stroke-width:0px;"/><path d="m220.5,120.4c-4.7,2.4-10.1,3.8-15.7,3.8s-9.7-1.1-14-2.9l-34.9,34.9c13.7,10,30.6,15.9,48.9,15.9s36.4-6.4,50.4-17l-34.6-34.6Z" style="fill:#5ca2cc; stroke-width:0px;"/><path d="m320.4,121.8c-13.1,0-25.5,3.1-36.6,8.6-2.5,4.8-5.4,9.3-8.7,13.6l29.6,29.6c4.7-2.4,10.1-3.8,15.7-3.8,19.4,0,35,15.7,35,35s-15.7,35-35,35-35-15.7-35-35,1.4-11,3.8-15.7l-29.6-29.6c-4.2,3.3-8.8,6.2-13.6,8.7-5.4,11-8.6,23.4-8.6,36.6,0,45.8,37.2,83,83,83s83-37.2,83-83-37.2-83-83-83Z" style="fill:#73c055; stroke-width:0px;"/><path d="m151.5,160.6l-30.2,30.2c1.9,4.3,2.9,9,2.9,14,0,19.4-15.7,35-35,35s-35-15.7-35-35,15.7-35,35-35,10.3,1.2,14.9,3.3l29.9-29.9c-3.1-4-5.8-8.4-8.2-12.9-11-5.4-23.4-8.5-36.5-8.5-45.8,0-83,37.2-83,83s37.2,83,83,83,83-37.2,83-83-3.1-25.5-8.5-36.5c-4.3-2.2-8.3-4.8-12.2-7.6Z" style="fill:#9e53a0; stroke-width:0px;"/></svg>